<svg width="1078" height="607" viewBox="0 0 1078 607" fill="none" xmlns="http://www.w3.org/2000/svg">
<g clip-path="url(#clip0_77_7121)">
<rect width="1078" height="607" fill="white"/>
<path d="M163.105 341.303C148.56 228.677 116.065 218.86 91.0773 162.011C68.3288 110.301 49.9833 25.7052 114.183 -34.7732C213.908 -128.792 336.211 -32.5867 336.211 -32.5867C336.211 -32.5867 530.016 96.4163 563.884 102.976C597.753 109.535 680.543 175.13 784.031 96.4163C887.519 17.7026 975.954 24.2621 1004.18 83.2974C1032.4 142.333 968.427 312.879 953.374 347.863C938.322 382.847 960.901 492.171 985.362 535.901C1009.82 579.631 1086.97 715.193 921.387 710.82C755.807 706.447 259.066 713.007 259.066 713.007C259.066 713.007 80.7474 709.137 112.302 507.477C138.644 339.117 168.75 385.033 163.105 341.303Z" fill="#167FFC" fill-opacity="0.08"/>
<path d="M227.079 325.997C247.863 325.997 264.711 306.419 264.711 282.267C264.711 258.116 247.863 238.537 227.079 238.537C206.296 238.537 189.447 258.116 189.447 282.267C189.447 306.419 206.296 325.997 227.079 325.997Z" fill="#167FFC"/>
<path d="M164.046 365.354C178.075 365.354 189.447 352.138 189.447 335.836C189.447 319.534 178.075 306.319 164.046 306.319C150.017 306.319 138.644 319.534 138.644 335.836C138.644 352.138 150.017 365.354 164.046 365.354Z" fill="#167FFC"/>
<path d="M167.809 284.454C175.603 284.454 181.921 277.112 181.921 268.055C181.921 258.998 175.603 251.656 167.809 251.656C160.015 251.656 153.697 258.998 153.697 268.055C153.697 277.112 160.015 284.454 167.809 284.454Z" fill="#167FFC"/>
<path d="M1002.3 621.173C1023.08 621.173 1039.93 601.595 1039.93 577.443C1039.93 553.292 1023.08 533.714 1002.3 533.714C981.512 533.714 964.664 553.292 964.664 577.443C964.664 601.595 981.512 621.173 1002.3 621.173Z" fill="#167FFC"/>
<path d="M98.1899 76.737C105.984 76.737 112.302 69.3951 112.302 60.3383C112.302 51.2816 105.984 43.9396 98.1899 43.9396C90.396 43.9396 84.0779 51.2816 84.0779 60.3383C84.0779 69.3951 90.396 76.737 98.1899 76.737Z" fill="#167FFC"/>
<path d="M333.389 651.784C370.28 651.784 400.186 617.032 400.186 574.164C400.186 531.295 370.28 496.543 333.389 496.543C296.498 496.543 266.593 531.295 266.593 574.164C266.593 617.032 296.498 651.784 333.389 651.784Z" fill="#167FFC" fill-opacity="0.42"/>
<path d="M774.623 688.955C799.563 688.955 819.781 665.46 819.781 636.479C819.781 607.497 799.563 584.003 774.623 584.003C749.683 584.003 729.465 607.497 729.465 636.479C729.465 665.46 749.683 688.955 774.623 688.955Z" fill="#167FFC" fill-opacity="0.42"/>
<path d="M947.73 393.778C961.239 393.778 972.19 381.052 972.19 365.354C972.19 349.656 961.239 336.93 947.73 336.93C934.22 336.93 923.269 349.656 923.269 365.354C923.269 381.052 934.22 393.778 947.73 393.778Z" fill="#167FFC" fill-opacity="0.42"/>
<path d="M765.215 166.383C792.234 166.383 814.137 140.931 814.137 109.534C814.137 78.1377 792.234 52.6856 765.215 52.6856C738.197 52.6856 716.294 78.1377 716.294 109.534C716.294 140.931 738.197 166.383 765.215 166.383Z" fill="#167FFC" fill-opacity="0.42"/>
<path d="M241.191 529.341C254.181 529.341 264.711 517.104 264.711 502.01C264.711 486.915 254.181 474.678 241.191 474.678C228.201 474.678 217.671 486.915 217.671 502.01C217.671 517.104 228.201 529.341 241.191 529.341Z" fill="#167FFC" fill-opacity="0.42"/>
<path d="M999.474 212.299C1012.46 212.299 1022.99 200.063 1022.99 184.968C1022.99 169.874 1012.46 157.637 999.474 157.637C986.484 157.637 975.954 169.874 975.954 184.968C975.954 200.063 986.484 212.299 999.474 212.299Z" fill="#167FFC"/>
<path d="M344.318 405.732V437.7C344.318 441.202 345.231 443.891 347.056 445.766C348.881 447.591 351.447 448.504 354.752 448.504C358.107 448.504 360.697 447.591 362.522 445.766C364.347 443.891 365.26 441.202 365.26 437.7V405.732H375.694V437.626C375.694 442.016 374.732 445.741 372.808 448.8C370.933 451.809 368.393 454.078 365.186 455.608C362.029 457.137 358.501 457.902 354.604 457.902C350.756 457.902 347.253 457.137 344.096 455.608C340.988 454.078 338.521 451.809 336.696 448.8C334.871 445.741 333.958 442.016 333.958 437.626V405.732H344.318ZM405.684 449.17H422.704V457.384H395.324V405.732H405.684V449.17ZM470.58 447.542H450.008L446.604 457.384H435.726L454.3 405.658H466.362L484.937 457.384H473.985L470.58 447.542ZM467.768 439.254L460.294 417.646L452.82 439.254H467.768ZM539.165 421.716C539.165 424.478 538.499 427.068 537.167 429.486C535.885 431.903 533.837 433.852 531.025 435.332C528.263 436.812 524.76 437.552 520.517 437.552H511.859V457.384H501.499V405.732H520.517C524.513 405.732 527.917 406.422 530.729 407.804C533.541 409.185 535.638 411.084 537.019 413.502C538.45 415.919 539.165 418.657 539.165 421.716ZM520.073 429.19C522.935 429.19 525.056 428.548 526.437 427.266C527.819 425.934 528.509 424.084 528.509 421.716C528.509 416.684 525.697 414.168 520.073 414.168H511.859V429.19H520.073Z" fill="#167FFC"/>
<path d="M553.625 431.484C553.625 426.402 554.759 421.864 557.029 417.868C559.347 413.822 562.48 410.69 566.427 408.47C570.423 406.2 574.887 405.066 579.821 405.066C585.593 405.066 590.649 406.546 594.991 409.506C599.332 412.466 602.366 416.56 604.093 421.79H592.179C590.995 419.323 589.317 417.473 587.147 416.24C585.025 415.006 582.559 414.39 579.747 414.39C576.737 414.39 574.049 415.105 571.681 416.536C569.362 417.917 567.537 419.89 566.205 422.456C564.922 425.021 564.281 428.03 564.281 431.484C564.281 434.888 564.922 437.897 566.205 440.512C567.537 443.077 569.362 445.075 571.681 446.506C574.049 447.887 576.737 448.578 579.747 448.578C582.559 448.578 585.025 447.961 587.147 446.728C589.317 445.445 590.995 443.57 592.179 441.104H604.093C602.366 446.382 599.332 450.502 594.991 453.462C590.699 456.372 585.642 457.828 579.821 457.828C574.887 457.828 570.423 456.718 566.427 454.498C562.48 452.228 559.347 449.096 557.029 445.1C554.759 441.104 553.625 436.565 553.625 431.484ZM654.233 447.542H633.661L630.257 457.384H619.379L637.953 405.658H650.015L668.589 457.384H657.637L654.233 447.542ZM651.421 439.254L643.947 417.646L636.473 439.254H651.421ZM711.792 457.384L700.396 437.256H695.512V457.384H685.152V405.732H704.54C708.536 405.732 711.94 406.447 714.752 407.878C717.564 409.259 719.661 411.158 721.042 413.576C722.473 415.944 723.188 418.608 723.188 421.568C723.188 424.972 722.202 428.055 720.228 430.818C718.255 433.531 715.32 435.406 711.422 436.442L723.78 457.384H711.792ZM695.512 429.486H704.17C706.982 429.486 709.079 428.82 710.46 427.488C711.842 426.106 712.532 424.207 712.532 421.79C712.532 419.422 711.842 417.596 710.46 416.314C709.079 414.982 706.982 414.316 704.17 414.316H695.512V429.486ZM777.328 405.732V414.094H763.564V457.384H753.204V414.094H739.44V405.732H777.328Z" fill="#212429"/>
<path d="M491.034 354.982C497.05 354.982 501.926 350.105 501.926 344.09C501.926 338.074 497.05 333.197 491.034 333.197C485.018 333.197 480.141 338.074 480.141 344.09C480.141 350.105 485.018 354.982 491.034 354.982Z" stroke="#212429" stroke-width="18.0511" stroke-linecap="round" stroke-linejoin="round"/>
<path d="M610.853 354.982C616.869 354.982 621.745 350.105 621.745 344.09C621.745 338.074 616.869 333.197 610.853 333.197C604.837 333.197 599.96 338.074 599.96 344.09C599.96 350.105 604.837 354.982 610.853 354.982Z" stroke="#212429" stroke-width="18.0511" stroke-linecap="round" stroke-linejoin="round"/>
<path d="M403.893 126.237H447.463L476.655 272.089C477.652 277.104 480.38 281.609 484.363 284.815C488.345 288.021 493.329 289.724 498.441 289.626H604.317C609.429 289.724 614.413 288.021 618.395 284.815C622.378 281.609 625.106 277.104 626.102 272.089L643.531 180.7H458.356" stroke="#212429" stroke-width="18.0511" stroke-linecap="round" stroke-linejoin="round"/>
</g>
<defs>
<clipPath id="clip0_77_7121">
<rect width="1078" height="607" fill="white"/>
</clipPath>
</defs>
</svg>
